<?xml version="1.0" encoding="UTF-8"?>
<svg width="28px" height="28px" viewBox="0 0 28 28" version="1.1" xmlns="http://www.w3.org/2000/svg" xmlns:xlink="http://www.w3.org/1999/xlink">
    <!-- Generator: sketchtool 41.2 (35397) - http://www.bohemiancoding.com/sketch -->
    <title>106E3F38-EBEF-4BE4-97D9-D91237E55700</title>
    <desc>Created with sketchtool.</desc>
    <defs></defs>
    <g id="Main" stroke="none" stroke-width="1" fill="none" fill-rule="evenodd">
        <g id="Selskap-Adresser" transform="translate(-1145.000000, -1248.000000)">
            <g id="Lightbox" transform="translate(448.000000, 1225.000000)">
                <g id="ic_cancel" transform="translate(695.000000, 21.000000)">
                    <polygon id="Bounds" points="0 0 32 0 32 32 0 32"></polygon>
                    <path d="M16,2.66666667 C8.62666667,2.66666667 2.66666667,8.62666667 2.66666667,16 C2.66666667,23.3733333 8.62666667,29.3333333 16,29.3333333 C23.3733333,29.3333333 29.3333333,23.3733333 29.3333333,16 C29.3333333,8.62666667 23.3733333,2.66666667 16,2.66666667 L16,2.66666667 Z M22.6666667,20.7866667 L20.7866667,22.6666667 L16,17.88 L11.2133333,22.6666667 L9.33333333,20.7866667 L14.12,16 L9.33333333,11.2133333 L11.2133333,9.33333333 L16,14.12 L20.7866667,9.33333333 L22.6666667,11.2133333 L17.88,16 L22.6666667,20.7866667 L22.6666667,20.7866667 Z" id="Icon" fill="#ffffff"></path>
                </g>
            </g>
        </g>
    </g>
</svg>